#N canvas 37 49 1142 601 10;
#X declare -path ../biblioteca;
#X obj 77 21 inlet mensagem_de_entrada;
#X obj 764 21 inlet dia_da_semana;
#X obj 764 42 change;
#N canvas 523 123 670 449 inicializador_do_dia_da_semana 0;
#X floatatom 122 95 5 0 7 0 - - -;
#X msg 166 108 get \$1 1;
#X obj 166 151 list store pascoa dom seg ter qua qui sex sab;
#X obj 23 228 list prepend onibus_;
#X msg 23 249 \$1\$2;
#X obj 23 270 list prepend symbol;
#X obj 23 291 list trim;
#X obj 166 23 inlet;
#X obj 23 374 outlet onibus_dia;
#X msg 263 249 \$1\$2;
#X obj 263 270 list prepend symbol;
#X obj 263 291 list trim;
#X obj 263 228 list prepend coordenadas_;
#X obj 263 374 outlet coordenadas_dia;
#X msg 493 249 \$1\$2;
#X obj 493 270 list prepend symbol;
#X obj 493 291 list trim;
#X obj 493 228 list prepend trajetos_;
#X obj 493 374 outlet trajetos_dia;
#X obj 166 172 t l l l, f 33;
#X text 336 54 Este subpatch seta todos os objetos [text] usados para
recuperar os dados do dataset para o dia da semana selecionado, f
46;
#X connect 0 0 1 0;
#X connect 1 0 2 0;
#X connect 2 0 19 0;
#X connect 3 0 4 0;
#X connect 4 0 5 0;
#X connect 5 0 6 0;
#X connect 6 0 8 0;
#X connect 7 0 1 0;
#X connect 9 0 10 0;
#X connect 10 0 11 0;
#X connect 11 0 13 0;
#X connect 12 0 9 0;
#X connect 14 0 15 0;
#X connect 15 0 16 0;
#X connect 16 0 18 0;
#X connect 17 0 14 0;
#X connect 19 0 3 0;
#X connect 19 1 12 0;
#X connect 19 2 17 0;
#X restore 764 122 pd inicializador_do_dia_da_semana;
#N canvas 300 106 710 536 buzu 0;
#X text 424 141 aponta para o indexador numérico e retorna a linha
de ônibus associada, f 35;
#X text 13 86 indexadores negativos retornam a quantidade total de
linhas de onibus cadastradas, f 21;
#X obj 201 408 outlet saída_de_dados;
#X obj 417 408 outlet bang_de_fim;
#X obj 174 118 moses 0, f 41;
#X floatatom 174 93 5 0 0 0 - - -;
#X msg 174 139 bang;
#X obj 174 243 t b f;
#X msg 417 244 \$1;
#X obj 417 265 t b a;
#X obj 174 22 inlet mensagem_de_entrada;
#X obj 417 223 text get;
#X obj 174 222 text size;
#X obj 462 22 inlet dataset;
#X connect 4 0 6 0;
#X connect 4 1 11 0;
#X connect 5 0 4 0;
#X connect 6 0 12 0;
#X connect 7 0 3 0;
#X connect 7 1 2 0;
#X connect 8 0 9 0;
#X connect 9 0 3 0;
#X connect 9 1 2 0;
#X connect 10 0 5 0;
#X connect 11 0 8 0;
#X connect 12 0 7 0;
#X connect 13 0 11 3;
#X connect 13 0 12 1;
#X restore 86 391 pd buzu;
#N canvas 201 136 445 535 zona 0;
#X obj 242 415 outlet bang_de_fim;
#X obj 16 417 outlet saída_de_dados;
#X obj 39 68 list prepend symbol;
#X obj 39 89 list trim;
#X obj 39 35 inlet identificador;
#X obj 132 314 t b a;
#X text 223 132 envia o dado de zona referente ao identificador, f
31;
#X obj 98 243 list split 3;
#X obj 199 35 inlet dataset;
#X obj 98 164 text search;
#X obj 98 202 text get, f 13;
#X connect 2 0 3 0;
#X connect 3 0 9 0;
#X connect 4 0 2 0;
#X connect 5 0 0 0;
#X connect 5 1 1 0;
#X connect 7 1 5 0;
#X connect 8 0 9 1;
#X connect 8 0 10 3;
#X connect 9 0 10 0;
#X connect 10 0 7 0;
#X restore 584 392 pd zona;
#N canvas 219 100 501 313 linhas 0;
#X text 271 73 Retorna todas as linhas de ônibus sequencialmente a
um intervalo de tempo definido, f 33;
#X obj 57 227 outlet dados;
#X obj 228 227 outlet bang_de_fim;
#X obj 57 19 inlet mensagem_de_entrada;
#N canvas 188 68 799 658 linhas_de_ônibus 0;
#X msg 172 408 line 0;
#X obj 367 125 t b b b;
#X obj 192 52 bng 15 250 50 0 empty empty empty 17 7 0 10 -262144 -1
-1;
#X msg 172 475 \$1;
#X floatatom 430 421 5 0 0 0 - - -;
#X msg 424 284 stop;
#X floatatom 525 231 5 0 0 0 - - -;
#N canvas 116 209 348 228 contador 0;
#X obj 32 117 f;
#X obj 75 117 + 1;
#X msg 141 84 -1;
#X text 69 5 CONTADOR COM RESET;
#X obj 32 144 bng 15 250 50 0 empty empty empty 17 7 0 10 -262144 -1
-1;
#X text 27 206 bang de saída;
#X obj 32 188 outlet bang;
#X obj 152 188 outlet contagem;
#X text 146 206 contagem de saída;
#X obj 32 33 inlet bang;
#X text 64 48 bang de contagem, f 9;
#X obj 141 33 inlet reset;
#X text 194 48 reinicia contagem;
#X connect 0 0 1 0;
#X connect 0 0 4 0;
#X connect 0 0 7 0;
#X connect 1 0 0 1;
#X connect 2 0 1 0;
#X connect 4 0 6 0;
#X connect 9 0 0 0;
#X connect 11 0 2 0;
#X restore 367 380 pd contador;
#X obj 367 208 bng 15 250 50 0 empty empty empty 17 7 0 10 -262144
-1 -1;
#X text 533 203 total de linhas de ônibus no dia, f 16;
#X obj 492 308 sel 10;
#N canvas 667 298 399 318 seletor 0;
#X obj 109 60 inlet;
#X obj 109 143 f;
#X obj 147 143 + 1;
#X obj 129 185 sel 1 2, f 15;
#X obj 109 112 bng 15 250 50 0 empty empty empty 17 7 0 10 -262144
-1 -1;
#X obj 89 217 bng 15 250 50 0 empty empty empty 17 7 0 10 -262144 -1
-1;
#X obj 172 217 bng 15 250 50 0 empty empty empty 17 7 0 10 -262144
-1 -1;
#X msg 214 102 1;
#X obj 89 282 outlet;
#X obj 172 282 outlet;
#X text 241 104 reseta contagem;
#X text 20 12 SELETOR - A cada bang recebido \, alterna bangs pelas
saídas.;
#X obj 214 81 loadbang;
#X connect 0 0 4 0;
#X connect 1 0 2 0;
#X connect 1 0 3 0;
#X connect 2 0 1 1;
#X connect 3 0 5 0;
#X connect 3 1 6 0;
#X connect 4 0 1 0;
#X connect 5 0 8 0;
#X connect 6 0 7 0;
#X connect 6 0 9 0;
#X connect 7 0 1 1;
#X connect 12 0 7 0;
#X restore 367 228 pd seletor;
#X obj 430 344 bng 15 250 50 0 empty empty empty 17 7 0 10 -262144
-1 -1;
#X obj 367 283 t b b b;
#X text 506 324 ao atingir o total de linhas de ônibus no dia \, o
[metro] é interrompido, f 22;
#X text 134 25 liga/desl;
#X text 380 25 tempo de leitura;
#X text 465 406 índice da linha a ser recuperada, f 11;
#X text 289 15 1;
#X text 553 17 2;
#X msg 367 408 step;
#X obj 367 350 metro 18;
#X obj 192 24 inlet liga/desl;
#X obj 480 24 inlet tempo;
#X msg 238 408 bang;
#X obj 172 544 outlet linhas;
#X obj 685 544 outlet acabou;
#X text 258 540 retorna linhas de ônibus no tempo determinado, f
24;
#X text 568 543 bang ao terminar de retornar dados, f 18;
#X obj 238 343 t b b;
#X obj 385 104 t b f;
#X text 17 87 Máquina que retorna as linhas de ônibus a um intervalo
de tempo determinado no inlet 2 de um determinado dia, f 32;
#X floatatom 462 253 5 0 0 0 - - -;
#X obj 403 432 bng 15 250 50 0 empty empty empty 17 7 0 10 -262144
-1 -1;
#N canvas 537 137 539 406 processamento_de_dados 0;
#X floatatom 217 58 5 0 0 0 - - -;
#X obj 196 265 f, f 4;
#X floatatom 196 294 5 0 0 0 - - -;
#X obj 217 23 inlet tempo;
#X text 292 22 tempo em ms;
#X obj 196 344 outlet tempo;
#X obj 39 344 outlet zero;
#X obj 39 23 inlet bang;
#X obj 39 185 spigot 1;
#X obj 84 165 <= 0;
#X obj 39 49 bng 15 250 50 0 empty empty empty 17 7 0 10 -262144 -1
-1;
#X obj 217 78 t f f, f 8;
#X obj 39 82 t b b;
#X obj 262 99 > 0;
#X obj 196 120 spigot 0, f 12;
#X obj 39 323 bng 15 250 50 0 empty empty empty 17 7 0 10 -262144 -1
-1;
#X obj 196 241 bng 15 250 50 0 empty empty empty 17 7 0 10 -262144
-1 -1;
#X text 311 219 Este subpatch retornará um bang pelo outlet esquerdo
sempre que o tempo de retorno fornecido entre cada linha de ônibus
seja igual ou menor que zero \, caso contrário \, retorna o tempo
pelo outlet direito para setar o [metro], f 34;
#X connect 0 0 11 0;
#X connect 1 0 2 0;
#X connect 2 0 5 0;
#X connect 3 0 0 0;
#X connect 7 0 10 0;
#X connect 8 0 15 0;
#X connect 9 0 8 1;
#X connect 10 0 12 0;
#X connect 11 0 9 0;
#X connect 11 0 1 1;
#X connect 11 1 13 0;
#X connect 12 0 8 0;
#X connect 12 1 14 0;
#X connect 13 0 14 1;
#X connect 14 0 16 0;
#X connect 15 0 6 0;
#X connect 16 0 1 0;
#X restore 238 82 pd processamento_de_dados;
#X text 601 25 dia da semana;
#X obj 685 24 inlet dia;
#X text 758 17 3;
#X obj 525 186 text size;
#X obj 172 454 text sequence, f 86;
#X connect 0 0 39 0;
#X connect 1 0 8 0;
#X connect 1 1 38 0;
#X connect 1 2 0 0;
#X connect 2 0 34 0;
#X connect 3 0 25 0;
#X connect 5 0 21 0;
#X connect 6 0 10 1;
#X connect 7 0 20 0;
#X connect 7 0 33 0;
#X connect 7 1 10 0;
#X connect 7 1 4 0;
#X connect 8 0 11 0;
#X connect 10 0 8 0;
#X connect 11 0 13 0;
#X connect 11 1 5 0;
#X connect 12 0 7 1;
#X connect 13 0 21 0;
#X connect 13 1 12 0;
#X connect 20 0 39 0;
#X connect 21 0 7 0;
#X connect 22 0 2 0;
#X connect 23 0 34 1;
#X connect 24 0 39 0;
#X connect 29 0 24 0;
#X connect 29 1 0 0;
#X connect 30 0 1 0;
#X connect 30 1 21 1;
#X connect 30 1 32 0;
#X connect 34 0 29 0;
#X connect 34 1 30 0;
#X connect 36 0 38 1;
#X connect 36 0 39 1;
#X connect 38 0 6 0;
#X connect 39 0 3 0;
#X connect 39 1 26 0;
#X restore 57 172 pd linhas_de_ônibus;
#X f 29;
#X obj 228 19 inlet dataset;
#X obj 57 97 t b f, f 9;
#X connect 3 0 6 0;
#X connect 4 0 1 0;
#X connect 4 1 2 0;
#X connect 5 0 4 2;
#X connect 6 0 4 0;
#X connect 6 1 4 1;
#X restore 16 391 pd linhas;
#N canvas 66 147 556 410 start_time 0;
#X text 49 29 Retorna o valor de start_time a partir do nome da linha
de ônibus, f 18;
#X obj 112 320 outlet saída_de_dados;
#X obj 302 320 outlet bang_de_fim;
#X msg 197 243 \$2;
#X obj 197 68 list prepend symbol;
#X obj 197 89 list trim;
#X obj 197 264 t b a;
#X obj 197 19 inlet linha_de_ônibus;
#X obj 46 182 sel -1;
#X msg 46 203 linha não encontrada;
#X obj 197 134 text search;
#X obj 197 222 text get;
#X obj 397 19 inlet dataset;
#X connect 3 0 6 0;
#X connect 4 0 5 0;
#X connect 5 0 10 0;
#X connect 6 0 2 0;
#X connect 6 1 1 0;
#X connect 7 0 4 0;
#X connect 8 0 9 0;
#X connect 9 0 6 0;
#X connect 10 0 8 0;
#X connect 10 0 11 0;
#X connect 11 0 3 0;
#X connect 12 0 10 1;
#X connect 12 0 11 3;
#X restore 144 391 pd start_time;
#N canvas 65 64 722 691 interval 0;
#X obj 492 626 outlet bang_de_fim;
#X obj 219 626 outlet saída_de_dados;
#X obj 158 368 list split 2;
#X obj 192 389 list split 24;
#X obj 192 495 t b a;
#X obj 158 131 list split 1;
#X obj 351 98 list length;
#X obj 158 84 t a a;
#X obj 492 353 list split 1;
#X obj 19 317 sel -1;
#X msg 19 338 linha não encontrada;
#N canvas 615 290 542 370 seletor_de_modo_de_saída 0;
#X obj 321 102 sel 0, f 16;
#X obj 82 211 spigot 1;
#X obj 82 70 t a a, f 32;
#X obj 271 251 spigot 1;
#X msg 321 147 1;
#X obj 321 127 t b b, f 8;
#X msg 366 147 0;
#X obj 414 157 t b b, f 8;
#X msg 414 177 0;
#X msg 459 177 1;
#X obj 82 17 inlet lista;
#X obj 321 17 inlet tamanho_da_lista;
#X obj 82 325 outlet sai_lista_completa;
#X obj 321 84 > 1;
#X obj 271 325 outlet mandar_lista_para_fatiamento;
#X connect 0 0 5 0;
#X connect 0 1 7 0;
#X connect 1 0 12 0;
#X connect 2 0 1 0;
#X connect 2 1 3 0;
#X connect 3 0 14 0;
#X connect 4 0 1 1;
#X connect 5 0 4 0;
#X connect 5 1 6 0;
#X connect 6 0 3 1;
#X connect 7 0 8 0;
#X connect 7 1 9 0;
#X connect 8 0 1 1;
#X connect 9 0 3 1;
#X connect 10 0 2 0;
#X connect 11 0 13 0;
#X connect 13 0 0 0;
#X restore 192 420 pd seletor_de_modo_de_saída;
#X text 503 369 argumento tempo, f 9;
#X text 96 134 argumento linha de ônibus, f 9;
#N canvas 423 264 566 514 fatiar_lista_no_tempo 0;
#X obj 37 27 inlet lista;
#X obj 387 27 inlet tempo;
#X obj 64 462 outlet saída_elemento_a_elemento;
#X obj 37 135 spigot 0;
#X obj 37 81 t a a, f 8;
#X obj 418 457 outlet bang_de_fim;
#X obj 268 26 inlet linha;
#N canvas 63 118 537 382 se_tempo_é_>=_0 0;
#X obj 35 20 inlet lista;
#X obj 194 20 inlet tempo;
#X obj 75 320 outlet libera_lista_completa;
#X obj 45 183 sel 1, f 11;
#X msg 45 205 1;
#X msg 108 205 0;
#X obj 28 219 bng 15 250 50 0 empty empty empty 17 7 0 10 -262144 -1
-1;
#X obj 133 220 bng 15 250 50 0 empty empty empty 17 7 0 10 -262144
-1 -1;
#X obj 301 256 spigot 1;
#X msg 313 205 1;
#X msg 376 205 0;
#X obj 292 220 bng 15 250 50 0 empty empty empty 17 7 0 10 -262144
-1 -1;
#X obj 405 219 bng 15 250 50 0 empty empty empty 17 7 0 10 -262144
-1 -1;
#X obj 313 183 sel 0, f 11;
#X obj 301 321 outlet libera_lista_pra_ser_fatiada;
#X obj 194 75 < 0;
#X text 354 58 Se o tempo é maior ou igual a zero \, este subpatch
libera os dados para serem fatiados, f 25;
#X connect 0 0 8 0;
#X connect 1 0 15 0;
#X connect 3 0 4 0;
#X connect 3 1 5 0;
#X connect 4 0 2 0;
#X connect 4 0 6 0;
#X connect 5 0 2 0;
#X connect 5 0 7 0;
#X connect 8 0 14 0;
#X connect 9 0 11 0;
#X connect 9 0 8 1;
#X connect 10 0 12 0;
#X connect 10 0 8 1;
#X connect 13 0 9 0;
#X connect 13 1 10 0;
#X connect 15 0 3 0;
#X connect 15 0 13 0;
#X restore 82 108 pd se_tempo_é_>=_0;
#X f 19;
#N canvas 453 153 455 305 condição_1 0;
#X obj 48 260 outlet;
#X obj 267 260 outlet;
#X obj 48 113 t a a, f 37;
#X obj 48 174 spigot 1, f 22;
#X obj 267 174 spigot 0;
#X obj 177 22 inlet linha;
#N canvas 457 199 281 300 se_dado_!=_dado-1 0;
#X obj 73 130 list-abs/list-compare;
#X msg 73 174 0;
#X msg 106 174 1;
#X obj 28 92 t a a, f 8;
#X obj 28 27 inlet;
#X obj 73 236 outlet;
#X text 79 22 Verifica se a lista recebida é igual à lista recebida
imediatamente antes, f 28;
#X obj 73 151 sel 1 0;
#X connect 0 0 7 0;
#X connect 1 0 5 0;
#X connect 2 0 5 0;
#X connect 3 0 0 1;
#X connect 3 1 0 0;
#X connect 4 0 3 0;
#X connect 7 0 1 0;
#X connect 7 1 2 0;
#X restore 177 87 pd se_dado_!=_dado-1;
#N canvas 457 199 281 300 se_dado_==_dado-1 0;
#X obj 73 130 list-abs/list-compare;
#X msg 73 174 0;
#X msg 106 174 1;
#X obj 28 92 t a a, f 8;
#X obj 28 27 inlet;
#X obj 73 236 outlet;
#X text 79 22 Verifica se a lista recebida é igual à lista recebida
imediatamente antes, f 28;
#X obj 73 151 sel 0 1;
#X connect 0 0 7 0;
#X connect 1 0 5 0;
#X connect 2 0 5 0;
#X connect 3 0 0 1;
#X connect 3 1 0 0;
#X connect 4 0 3 0;
#X connect 7 0 1 0;
#X connect 7 1 2 0;
#X restore 312 95 pd se_dado_==_dado-1;
#X obj 177 52 t a a, f 23;
#X text 105 227 Verifica se o dado de linha de ônibus foi repetido
escolhendo a saída apropriada para a lista em cada condição, f
24;
#X obj 48 22 inlet lista;
#X connect 2 0 3 0;
#X connect 2 1 4 0;
#X connect 3 0 0 0;
#X connect 4 0 1 0;
#X connect 5 0 8 0;
#X connect 6 0 3 1;
#X connect 7 0 4 1;
#X connect 8 0 6 0;
#X connect 8 1 7 0;
#X connect 10 0 2 0;
#X restore 193 131 pd condição_1;
#N canvas 454 153 455 305 condição_2 0;
#X obj 48 260 outlet;
#X obj 267 260 outlet;
#X obj 48 142 t a a, f 37;
#X obj 48 174 spigot 1, f 22;
#X obj 267 174 spigot 0;
#N canvas 457 199 281 300 se_dado_!=_dado-1 0;
#X obj 73 130 list-abs/list-compare;
#X msg 73 174 0;
#X msg 106 174 1;
#X obj 28 92 t a a, f 8;
#X obj 28 27 inlet;
#X obj 73 236 outlet;
#X text 79 22 Verifica se a lista recebida é igual à lista recebida
imediatamente antes, f 28;
#X obj 73 151 sel 1 0;
#X connect 0 0 7 0;
#X connect 1 0 5 0;
#X connect 2 0 5 0;
#X connect 3 0 0 1;
#X connect 3 1 0 0;
#X connect 4 0 3 0;
#X connect 7 0 1 0;
#X connect 7 1 2 0;
#X restore 312 86 pd se_dado_!=_dado-1;
#N canvas 457 199 281 300 se_dado_==_dado-1 0;
#X obj 73 130 list-abs/list-compare;
#X msg 73 174 0;
#X msg 106 174 1;
#X obj 28 92 t a a, f 8;
#X obj 28 27 inlet;
#X obj 73 236 outlet;
#X text 79 22 Verifica se a lista recebida é igual à lista recebida
imediatamente antes, f 28;
#X obj 73 151 sel 0 1;
#X connect 0 0 7 0;
#X connect 1 0 5 0;
#X connect 2 0 5 0;
#X connect 3 0 0 1;
#X connect 3 1 0 0;
#X connect 4 0 3 0;
#X connect 7 0 1 0;
#X connect 7 1 2 0;
#X restore 177 86 pd se_dado_==_dado-1;
#X obj 48 22 inlet lista;
#X obj 177 52 t f f, f 23;
#X obj 177 22 inlet tempo;
#X text 105 227 Verifica se o dado de tempo foi repetido escolhendo
a saída apropriada para a lista em cada condição, f 24;
#X obj 21 43 t a a;
#X obj 21 232 spigot;
#X obj 54 205 r \$0-fim_iterador;
#X connect 2 0 3 0;
#X connect 2 1 4 0;
#X connect 3 0 0 0;
#X connect 4 0 1 0;
#X connect 5 0 4 1;
#X connect 6 0 3 1;
#X connect 7 0 11 0;
#X connect 8 0 6 0;
#X connect 8 1 5 0;
#X connect 9 0 8 0;
#X connect 11 0 12 0;
#X connect 11 1 2 0;
#X connect 12 0 0 0;
#X connect 13 0 12 1;
#X restore 268 161 pd condição_2;
#X obj 387 94 t f f f f, f 11;
#N canvas 454 153 525 373 condição_3 0;
#X obj 48 310 outlet;
#X obj 177 310 outlet;
#X obj 177 144 spigot 0;
#N canvas 457 199 281 300 se_dado_!=_dado-1 0;
#X obj 73 130 list-abs/list-compare;
#X msg 73 174 0;
#X msg 106 174 1;
#X obj 28 92 t a a, f 8;
#X obj 28 27 inlet;
#X obj 73 236 outlet;
#X text 79 22 Verifica se a lista recebida é igual à lista recebida
imediatamente antes, f 28;
#X obj 73 151 sel 1 0;
#X connect 0 0 7 0;
#X connect 1 0 5 0;
#X connect 2 0 5 0;
#X connect 3 0 0 1;
#X connect 3 1 0 0;
#X connect 4 0 3 0;
#X connect 7 0 1 0;
#X connect 7 1 2 0;
#X restore 222 81 pd se_dado_!=_dado-1;
#X obj 48 22 inlet lista;
#X obj 177 52 t f f, f 8;
#X obj 177 22 inlet tempo;
#X obj 414 223 ==;
#X obj 369 21 inlet tempo_inicial;
#X obj 369 252 spigot 1;
#X obj 222 223 !=;
#X obj 369 42 t f f f, f 11;
#X obj 177 165 t f f f;
#X obj 177 252 spigot 0;
#X obj 47 251 spigot 0;
#X connect 2 0 12 0;
#X connect 3 0 2 1;
#X connect 4 0 14 0;
#X connect 5 0 2 0;
#X connect 5 1 3 0;
#X connect 6 0 5 0;
#X connect 7 0 9 1;
#X connect 7 0 14 1;
#X connect 8 0 11 0;
#X connect 9 0 1 0;
#X connect 10 0 13 1;
#X connect 11 0 9 0;
#X connect 11 1 10 1;
#X connect 11 2 7 1;
#X connect 12 0 13 0;
#X connect 12 1 10 0;
#X connect 12 2 7 0;
#X connect 13 0 1 0;
#X connect 14 0 0 0;
#X restore 343 193 pd condição_3;
#X obj 37 264 t a a;
#N canvas 128 99 366 300 verificador_de_repetição 0;
#X obj 37 37 inlet;
#X obj 239 33 r \$0-fim_iterador;
#X obj 239 70 == 0;
#X obj 112 180 == 2;
#X obj 112 156 +;
#X obj 112 201 sel 1;
#X obj 112 259 s \$0-verificador_de_repetição;
#X msg 112 222 1;
#X msg 37 76 1;
#X connect 0 0 8 0;
#X connect 1 0 2 0;
#X connect 2 0 4 1;
#X connect 3 0 5 0;
#X connect 4 0 3 0;
#X connect 5 0 7 0;
#X connect 7 0 6 0;
#X connect 8 0 4 0;
#X restore 64 285 pd verificador_de_repetição;
#N canvas 445 51 583 381 iterador 0;
#X obj 89 17 inlet lista_de_dados;
#X obj 310 17 inlet tempo;
#X obj 116 300 outlet saída_dado_a_dado;
#X obj 89 118 list split 1, f 41;
#X obj 23 227 del, f 12;
#X msg 23 201 bang;
#X obj 332 300 outlet bang_de_fim;
#X obj 89 139 t b f;
#X obj 359 261 s \$0-fim_iterador;
#X msg 359 229 1;
#X obj 89 68 t a b;
#X msg 392 228 0;
#X obj 189 272 list;
#X obj 89 38 t a a, f 16;
#N canvas 769 39 366 347 verificador_para_bang_de_fim 0;
#X obj 37 17 inlet;
#X obj 239 79 r \$0-fim_iterador;
#N canvas 457 199 281 300 se_dado_!=_dado-1 0;
#X obj 73 130 list-abs/list-compare;
#X msg 73 174 0;
#X msg 106 174 1;
#X obj 28 92 t a a, f 8;
#X obj 28 27 inlet;
#X obj 73 236 outlet;
#X text 79 22 Verifica se a lista recebida é igual à lista recebida
imediatamente antes, f 28;
#X obj 73 151 sel 1 0;
#X connect 0 0 7 0;
#X connect 1 0 5 0;
#X connect 2 0 5 0;
#X connect 3 0 0 1;
#X connect 3 1 0 0;
#X connect 4 0 3 0;
#X connect 7 0 1 0;
#X connect 7 1 2 0;
#X restore 37 149 pd se_dado_!=_dado-1;
#X obj 37 175 == 1;
#X obj 239 100 == 0;
#X obj 112 240 == 2;
#X obj 112 216 +;
#X obj 112 261 sel 1;
#X obj 37 88 t a a;
#X obj 52 116 s lista_atual_no_iterador;
#X obj 112 299 s \$0-verificador_de_repetição;
#X connect 0 0 8 0;
#X connect 1 0 4 0;
#X connect 2 0 3 0;
#X connect 3 0 6 0;
#X connect 4 0 6 1;
#X connect 5 0 7 0;
#X connect 6 0 5 0;
#X connect 7 0 10 0;
#X connect 8 0 2 0;
#X connect 8 1 9 0;
#X restore 182 62 pd verificador_para_bang_de_fim;
#X obj 221 140 r \$0-verificador_de_repetição;
#X obj 332 209 t b b;
#X msg 58 201 stop;
#X obj 221 183 t b b b;
#X connect 0 0 13 0;
#X connect 1 0 4 1;
#X connect 3 0 7 0;
#X connect 3 1 12 1;
#X connect 3 2 16 0;
#X connect 4 0 12 0;
#X connect 5 0 4 0;
#X connect 7 0 5 0;
#X connect 7 1 2 0;
#X connect 9 0 8 0;
#X connect 10 0 3 0;
#X connect 10 1 11 0;
#X connect 11 0 8 0;
#X connect 12 0 3 0;
#X connect 13 0 10 0;
#X connect 13 1 14 0;
#X connect 15 0 18 0;
#X connect 16 0 6 0;
#X connect 16 1 9 0;
#X connect 17 0 4 0;
#X connect 18 0 12 0;
#X connect 18 1 12 1;
#X connect 18 2 17 0;
#X restore 193 378 pd iterador;
#X f 38;
#X obj 37 408 t b a;
#X connect 0 0 4 0;
#X connect 1 0 10 0;
#X connect 3 0 12 0;
#X connect 4 0 3 0;
#X connect 4 1 7 0;
#X connect 6 0 8 1;
#X connect 7 0 3 1;
#X connect 7 1 8 0;
#X connect 8 0 14 0;
#X connect 8 1 9 0;
#X connect 9 0 14 0;
#X connect 9 1 11 0;
#X connect 10 0 7 1;
#X connect 10 1 9 1;
#X connect 10 2 11 1;
#X connect 10 3 11 2;
#X connect 11 1 14 1;
#X connect 12 0 15 0;
#X connect 12 1 13 0;
#X connect 14 0 2 0;
#X connect 14 1 5 0;
#X connect 15 0 5 0;
#X connect 15 1 2 0;
#X restore 351 522 pd fatiar_lista_no_tempo;
#X text 484 131 envia todos os dados de interval referentes a linha
requerida, f 22;
#X obj 58 9 inlet mensagem_de_entrada;
#X obj 158 254 text search, f 13;
#X obj 158 277 text get, f 14;
#X obj 278 9 inlet dataset;
#X obj 158 194 t s s, f 45;
#X obj 192 441 t a a;
#N canvas 128 99 366 300 verificador_de_repetição 0;
#X obj 37 37 inlet;
#X obj 239 33 r \$0-fim_iterador;
#X obj 239 70 == 0;
#X obj 112 180 == 2;
#X obj 112 156 +;
#X obj 112 201 sel 1;
#X obj 112 259 s \$0-verificador_de_repetição;
#X msg 112 222 1;
#X obj 37 58 t b;
#X msg 37 79 1;
#X connect 0 0 8 0;
#X connect 1 0 2 0;
#X connect 2 0 4 1;
#X connect 3 0 5 0;
#X connect 4 0 3 0;
#X connect 5 0 7 0;
#X connect 7 0 6 0;
#X connect 8 0 9 0;
#X connect 9 0 4 0;
#X restore 219 462 pd verificador_de_repetição;
#X connect 2 1 3 0;
#X connect 3 0 11 0;
#X connect 4 0 0 0;
#X connect 4 1 1 0;
#X connect 5 0 20 0;
#X connect 5 1 8 0;
#X connect 6 0 11 1;
#X connect 7 0 5 0;
#X connect 7 1 6 0;
#X connect 8 0 14 2;
#X connect 9 0 10 0;
#X connect 10 0 4 0;
#X connect 11 0 21 0;
#X connect 11 1 14 0;
#X connect 14 0 1 0;
#X connect 14 1 0 0;
#X connect 16 0 7 0;
#X connect 17 0 9 0;
#X connect 17 0 18 0;
#X connect 18 0 2 0;
#X connect 19 0 17 1;
#X connect 19 0 18 3;
#X connect 20 0 17 0;
#X connect 20 1 14 1;
#X connect 21 0 4 0;
#X connect 21 1 22 0;
#X restore 235 391 pd interval;
#N canvas 51 126 480 585 coordenadas 0;
#X obj 272 475 outlet bang_de_fim;
#X obj 75 475 outlet saída_de_dados;
#X obj 63 68 list prepend symbol;
#X obj 63 89 list trim;
#X obj 39 35 inlet identificador;
#X text 243 321 envia os dados de coordenadas referentes ao identificador
, f 31;
#X obj 98 243 list split 1;
#X obj 132 270 list split 2;
#X obj 100 318 t b a;
#X obj 98 164 text search;
#X obj 98 202 text get, f 15;
#X obj 239 35 inlet dataset;
#X connect 2 0 3 0;
#X connect 3 0 9 0;
#X connect 4 0 2 0;
#X connect 6 1 7 0;
#X connect 7 0 8 0;
#X connect 8 0 0 0;
#X connect 8 1 1 0;
#X connect 9 0 10 0;
#X connect 10 0 6 0;
#X connect 11 0 9 1;
#X connect 11 0 10 3;
#X restore 492 392 pd coordenadas;
#N canvas 592 39 684 602 avgspeed 0;
#X obj 398 538 outlet bang_de_fim;
#X obj 231 538 outlet saída_de_dados;
#X text 487 61 envia todos os dados de velocidade média referentes
ao identificador de trajeto, f 29;
#X obj 70 24 inlet identificador_de_trajeto;
#X obj 204 399 t b a;
#X obj 19 257 sel -1;
#X msg 19 278 linha não encontrada;
#N canvas 615 290 542 370 seletor_de_modo_de_saída 0;
#X obj 321 102 sel 0, f 16;
#X obj 82 211 spigot 1;
#X obj 82 70 t a a, f 32;
#X obj 271 251 spigot 1;
#X msg 321 147 1;
#X obj 321 127 t b b, f 8;
#X msg 366 147 0;
#X obj 414 157 t b b, f 8;
#X msg 414 177 0;
#X msg 459 177 1;
#X obj 82 17 inlet lista;
#X obj 321 17 inlet tamanho_da_lista;
#X obj 82 325 outlet sai_lista_completa;
#X obj 321 84 > 1;
#X obj 271 325 outlet manda_lista_para_fatiamento;
#X connect 0 0 5 0;
#X connect 0 1 7 0;
#X connect 1 0 12 0;
#X connect 2 0 1 0;
#X connect 2 1 3 0;
#X connect 3 0 14 0;
#X connect 4 0 1 1;
#X connect 5 0 4 0;
#X connect 5 1 6 0;
#X connect 6 0 3 1;
#X connect 7 0 8 0;
#X connect 7 1 9 0;
#X connect 8 0 1 1;
#X connect 9 0 3 1;
#X connect 10 0 2 0;
#X connect 11 0 13 0;
#X connect 13 0 0 0;
#X restore 204 347 pd seletor_de_modo_de_saída;
#X obj 363 99 list length;
#X obj 170 85 t a a;
#X obj 170 115 list split 1;
#X obj 504 244 list split 1;
#N canvas 733 62 502 514 fatiar_lista_no_tempo 0;
#X obj 37 37 inlet lista;
#X obj 271 37 inlet tempo;
#X text 342 38 (ms);
#X obj 37 452 outlet saída_elemento_a_elemento;
#X obj 37 225 spigot 0;
#X obj 271 109 t a a, f 11;
#N canvas 456 120 471 263 disparador_de_dados 0;
#X obj 89 17 inlet lista_de_dados;
#X obj 310 17 inlet tempo;
#X obj 89 200 outlet saída_dado_a_dado;
#X obj 89 68 list split 1, f 41;
#X obj 147 142 list append;
#X obj 28 128 del;
#X msg 28 102 bang;
#X obj 332 200 outlet bang_de_fim;
#X connect 0 0 3 0;
#X connect 1 0 5 1;
#X connect 3 0 6 0;
#X connect 3 0 2 0;
#X connect 3 1 4 1;
#X connect 3 2 7 0;
#X connect 4 0 3 0;
#X connect 5 0 4 0;
#X connect 6 0 5 0;
#X restore 169 267 pd disparador_de_dados;
#X f 28;
#X obj 37 111 t a a, f 8;
#N canvas 162 87 537 382 se_tempo_é_menor_que_0 0;
#X obj 35 20 inlet lista;
#X obj 194 20 inlet tempo;
#X obj 75 320 outlet libera_lista_completa;
#X obj 45 183 sel 1, f 11;
#X msg 45 205 1;
#X msg 108 205 0;
#X obj 28 219 bng 15 250 50 0 empty empty empty 17 7 0 10 -262144 -1
-1;
#X obj 133 220 bng 15 250 50 0 empty empty empty 17 7 0 10 -262144
-1 -1;
#X obj 301 256 spigot 1;
#X msg 313 205 1;
#X msg 376 205 0;
#X obj 292 220 bng 15 250 50 0 empty empty empty 17 7 0 10 -262144
-1 -1;
#X obj 405 219 bng 15 250 50 0 empty empty empty 17 7 0 10 -262144
-1 -1;
#X obj 313 183 sel 0, f 11;
#X obj 301 321 outlet libera_lista_pra_ser_fatiada;
#X obj 194 75 < 0;
#X text 354 58 Se o tempo é maior ou igual a zero \, este subpatch
libera os dados para serem fatiados, f 25;
#X connect 0 0 8 0;
#X connect 1 0 15 0;
#X connect 3 0 4 0;
#X connect 3 1 5 0;
#X connect 4 0 2 0;
#X connect 4 0 6 0;
#X connect 5 0 2 0;
#X connect 5 0 7 0;
#X connect 8 0 14 0;
#X connect 9 0 11 0;
#X connect 9 0 8 1;
#X connect 10 0 12 0;
#X connect 10 0 8 1;
#X connect 13 0 9 0;
#X connect 13 1 10 0;
#X connect 15 0 3 0;
#X connect 15 0 13 0;
#X restore 82 158 pd se_tempo_é_menor_que_0;
#X f 32;
#X obj 334 451 outlet bang_de_fim;
#X connect 0 0 7 0;
#X connect 1 0 5 0;
#X connect 4 0 3 0;
#X connect 5 0 8 1;
#X connect 5 1 6 1;
#X connect 6 0 3 0;
#X connect 6 1 9 0;
#X connect 7 0 4 0;
#X connect 7 1 8 0;
#X connect 8 0 4 1;
#X connect 8 1 6 0;
#X restore 363 381 pd fatiar_lista_no_tempo;
#X text 583 242 tempo, f 6;
#X text 24 131 identificador de trajeto;
#X obj 300 24 inlet dataset;
#X obj 170 204 text search;
#X obj 170 232 text get, f 13;
#X obj 170 313 list split 2;
#X connect 3 0 9 0;
#X connect 4 0 0 0;
#X connect 4 1 1 0;
#X connect 5 0 6 0;
#X connect 6 0 4 0;
#X connect 7 0 4 0;
#X connect 7 1 12 0;
#X connect 8 0 7 1;
#X connect 9 0 10 0;
#X connect 9 1 8 0;
#X connect 10 0 16 0;
#X connect 10 1 11 0;
#X connect 11 0 12 1;
#X connect 12 0 1 0;
#X connect 12 1 0 0;
#X connect 15 0 16 1;
#X connect 15 0 17 3;
#X connect 16 0 5 0;
#X connect 16 0 17 0;
#X connect 17 0 18 0;
#X connect 18 1 7 0;
#X restore 762 392 pd avgspeed;
#N canvas 219 103 757 674 stops 0;
#X text 547 153 envia todos os dados de stops referentes à linha requerida
, f 25;
#X obj 492 626 outlet bang_de_fim;
#X obj 219 626 outlet saída_de_dados;
#X obj 158 368 list split 2;
#X obj 192 389 list split 24;
#X obj 192 495 t b a;
#X obj 158 131 list split 1;
#X obj 351 98 list length;
#X obj 158 84 t a a;
#X obj 492 353 list split 1;
#X obj 19 317 sel -1;
#X msg 19 338 linha não encontrada;
#N canvas 615 290 542 370 seletor_de_modo_de_saída 0;
#X obj 321 102 sel 0, f 16;
#X obj 82 211 spigot 1;
#X obj 82 70 t a a, f 32;
#X obj 271 251 spigot 1;
#X msg 321 147 1;
#X obj 321 127 t b b, f 8;
#X msg 366 147 0;
#X obj 414 157 t b b, f 8;
#X msg 414 177 0;
#X msg 459 177 1;
#X obj 82 17 inlet lista;
#X obj 321 17 inlet tamanho_da_lista;
#X obj 82 325 outlet sai_lista_completa;
#X obj 321 84 > 1;
#X obj 271 325 outlet mandar_lista_para_fatiamento;
#X connect 0 0 5 0;
#X connect 0 1 7 0;
#X connect 1 0 12 0;
#X connect 2 0 1 0;
#X connect 2 1 3 0;
#X connect 3 0 14 0;
#X connect 4 0 1 1;
#X connect 5 0 4 0;
#X connect 5 1 6 0;
#X connect 6 0 3 1;
#X connect 7 0 8 0;
#X connect 7 1 9 0;
#X connect 8 0 1 1;
#X connect 9 0 3 1;
#X connect 10 0 2 0;
#X connect 11 0 13 0;
#X connect 13 0 0 0;
#X restore 192 420 pd seletor_de_modo_de_saída;
#X text 503 369 argumento tempo, f 9;
#X text 96 134 argumento linha de ônibus, f 9;
#N canvas 423 264 566 514 fatiar_lista_no_tempo 0;
#X obj 37 27 inlet lista;
#X obj 387 27 inlet tempo;
#X obj 64 462 outlet saída_elemento_a_elemento;
#X obj 37 135 spigot 0;
#X obj 37 81 t a a, f 8;
#X obj 418 457 outlet bang_de_fim;
#X obj 268 26 inlet linha;
#N canvas 63 118 537 382 se_tempo_é_>=_0 0;
#X obj 35 20 inlet lista;
#X obj 194 20 inlet tempo;
#X obj 75 320 outlet libera_lista_completa;
#X obj 45 183 sel 1, f 11;
#X msg 45 205 1;
#X msg 108 205 0;
#X obj 28 219 bng 15 250 50 0 empty empty empty 17 7 0 10 -262144 -1
-1;
#X obj 133 220 bng 15 250 50 0 empty empty empty 17 7 0 10 -262144
-1 -1;
#X obj 301 256 spigot 1;
#X msg 313 205 1;
#X msg 376 205 0;
#X obj 292 220 bng 15 250 50 0 empty empty empty 17 7 0 10 -262144
-1 -1;
#X obj 405 219 bng 15 250 50 0 empty empty empty 17 7 0 10 -262144
-1 -1;
#X obj 313 183 sel 0, f 11;
#X obj 301 321 outlet libera_lista_pra_ser_fatiada;
#X obj 194 75 < 0;
#X text 354 58 Se o tempo é maior ou igual a zero \, este subpatch
libera os dados para serem fatiados, f 25;
#X connect 0 0 8 0;
#X connect 1 0 15 0;
#X connect 3 0 4 0;
#X connect 3 1 5 0;
#X connect 4 0 2 0;
#X connect 4 0 6 0;
#X connect 5 0 2 0;
#X connect 5 0 7 0;
#X connect 8 0 14 0;
#X connect 9 0 11 0;
#X connect 9 0 8 1;
#X connect 10 0 12 0;
#X connect 10 0 8 1;
#X connect 13 0 9 0;
#X connect 13 1 10 0;
#X connect 15 0 3 0;
#X connect 15 0 13 0;
#X restore 82 108 pd se_tempo_é_>=_0;
#X f 19;
#N canvas 453 153 455 305 condição_1 0;
#X obj 48 260 outlet;
#X obj 267 260 outlet;
#X obj 48 113 t a a, f 37;
#X obj 48 174 spigot 1, f 22;
#X obj 267 174 spigot 0;
#X obj 177 22 inlet linha;
#N canvas 457 199 281 300 se_dado_!=_dado-1 0;
#X obj 73 130 list-abs/list-compare;
#X msg 73 174 0;
#X msg 106 174 1;
#X obj 28 92 t a a, f 8;
#X obj 28 27 inlet;
#X obj 73 236 outlet;
#X text 79 22 Verifica se a lista recebida é igual à lista recebida
imediatamente antes, f 28;
#X obj 73 151 sel 1 0;
#X connect 0 0 7 0;
#X connect 1 0 5 0;
#X connect 2 0 5 0;
#X connect 3 0 0 1;
#X connect 3 1 0 0;
#X connect 4 0 3 0;
#X connect 7 0 1 0;
#X connect 7 1 2 0;
#X restore 177 87 pd se_dado_!=_dado-1;
#N canvas 457 199 281 300 se_dado_==_dado-1 0;
#X obj 73 130 list-abs/list-compare;
#X msg 73 174 0;
#X msg 106 174 1;
#X obj 28 92 t a a, f 8;
#X obj 28 27 inlet;
#X obj 73 236 outlet;
#X text 79 22 Verifica se a lista recebida é igual à lista recebida
imediatamente antes, f 28;
#X obj 73 151 sel 0 1;
#X connect 0 0 7 0;
#X connect 1 0 5 0;
#X connect 2 0 5 0;
#X connect 3 0 0 1;
#X connect 3 1 0 0;
#X connect 4 0 3 0;
#X connect 7 0 1 0;
#X connect 7 1 2 0;
#X restore 312 95 pd se_dado_==_dado-1;
#X obj 177 52 t a a, f 23;
#X text 105 227 Verifica se o dado de linha de ônibus foi repetido
escolhendo a saída apropriada para a lista em cada condição, f
24;
#X obj 48 22 inlet lista;
#X connect 2 0 3 0;
#X connect 2 1 4 0;
#X connect 3 0 0 0;
#X connect 4 0 1 0;
#X connect 5 0 8 0;
#X connect 6 0 3 1;
#X connect 7 0 4 1;
#X connect 8 0 6 0;
#X connect 8 1 7 0;
#X connect 10 0 2 0;
#X restore 193 131 pd condição_1;
#N canvas 454 153 455 305 condição_2 0;
#X obj 48 260 outlet;
#X obj 267 260 outlet;
#X obj 48 142 t a a, f 37;
#X obj 48 174 spigot 1, f 22;
#X obj 267 174 spigot 0;
#N canvas 457 199 281 300 se_dado_!=_dado-1 0;
#X obj 73 130 list-abs/list-compare;
#X msg 73 174 0;
#X msg 106 174 1;
#X obj 28 92 t a a, f 8;
#X obj 28 27 inlet;
#X obj 73 236 outlet;
#X text 79 22 Verifica se a lista recebida é igual à lista recebida
imediatamente antes, f 28;
#X obj 73 151 sel 1 0;
#X connect 0 0 7 0;
#X connect 1 0 5 0;
#X connect 2 0 5 0;
#X connect 3 0 0 1;
#X connect 3 1 0 0;
#X connect 4 0 3 0;
#X connect 7 0 1 0;
#X connect 7 1 2 0;
#X restore 312 86 pd se_dado_!=_dado-1;
#N canvas 457 199 281 300 se_dado_==_dado-1 0;
#X obj 73 130 list-abs/list-compare;
#X msg 73 174 0;
#X msg 106 174 1;
#X obj 28 92 t a a, f 8;
#X obj 28 27 inlet;
#X obj 73 236 outlet;
#X text 79 22 Verifica se a lista recebida é igual à lista recebida
imediatamente antes, f 28;
#X obj 73 151 sel 0 1;
#X connect 0 0 7 0;
#X connect 1 0 5 0;
#X connect 2 0 5 0;
#X connect 3 0 0 1;
#X connect 3 1 0 0;
#X connect 4 0 3 0;
#X connect 7 0 1 0;
#X connect 7 1 2 0;
#X restore 177 86 pd se_dado_==_dado-1;
#X obj 48 22 inlet lista;
#X obj 177 52 t f f, f 23;
#X obj 177 22 inlet tempo;
#X text 105 227 Verifica se o dado de tempo foi repetido escolhendo
a saída apropriada para a lista em cada condição, f 24;
#X obj 21 43 t a a;
#X obj 21 232 spigot;
#X obj 54 205 r \$0-fim_iterador;
#X connect 2 0 3 0;
#X connect 2 1 4 0;
#X connect 3 0 0 0;
#X connect 4 0 1 0;
#X connect 5 0 4 1;
#X connect 6 0 3 1;
#X connect 7 0 11 0;
#X connect 8 0 6 0;
#X connect 8 1 5 0;
#X connect 9 0 8 0;
#X connect 11 0 12 0;
#X connect 11 1 2 0;
#X connect 12 0 0 0;
#X connect 13 0 12 1;
#X restore 268 161 pd condição_2;
#X obj 387 94 t f f f f, f 11;
#N canvas 454 153 525 373 condição_3 0;
#X obj 48 310 outlet;
#X obj 177 310 outlet;
#X obj 177 144 spigot 0;
#N canvas 457 199 281 300 se_dado_!=_dado-1 0;
#X obj 73 130 list-abs/list-compare;
#X msg 73 174 0;
#X msg 106 174 1;
#X obj 28 92 t a a, f 8;
#X obj 28 27 inlet;
#X obj 73 236 outlet;
#X text 79 22 Verifica se a lista recebida é igual à lista recebida
imediatamente antes, f 28;
#X obj 73 151 sel 1 0;
#X connect 0 0 7 0;
#X connect 1 0 5 0;
#X connect 2 0 5 0;
#X connect 3 0 0 1;
#X connect 3 1 0 0;
#X connect 4 0 3 0;
#X connect 7 0 1 0;
#X connect 7 1 2 0;
#X restore 222 81 pd se_dado_!=_dado-1;
#X obj 48 22 inlet lista;
#X obj 177 52 t f f, f 8;
#X obj 177 22 inlet tempo;
#X obj 414 223 ==;
#X obj 369 21 inlet tempo_inicial;
#X obj 369 252 spigot 1;
#X obj 222 223 !=;
#X obj 369 42 t f f f, f 11;
#X obj 177 165 t f f f;
#X obj 177 252 spigot 0;
#X obj 47 251 spigot 0;
#X connect 2 0 12 0;
#X connect 3 0 2 1;
#X connect 4 0 14 0;
#X connect 5 0 2 0;
#X connect 5 1 3 0;
#X connect 6 0 5 0;
#X connect 7 0 9 1;
#X connect 7 0 14 1;
#X connect 8 0 11 0;
#X connect 9 0 1 0;
#X connect 10 0 13 1;
#X connect 11 0 9 0;
#X connect 11 1 10 1;
#X connect 11 2 7 1;
#X connect 12 0 13 0;
#X connect 12 1 10 0;
#X connect 12 2 7 0;
#X connect 13 0 1 0;
#X connect 14 0 0 0;
#X restore 343 193 pd condição_3;
#X obj 37 264 t a a;
#N canvas 128 99 366 300 verificador_de_repetição 0;
#X obj 37 37 inlet;
#X obj 239 33 r \$0-fim_iterador;
#X obj 239 70 == 0;
#X obj 112 180 == 2;
#X obj 112 156 +;
#X obj 112 201 sel 1;
#X obj 112 259 s \$0-verificador_de_repetição;
#X msg 112 222 1;
#X msg 37 76 1;
#X connect 0 0 8 0;
#X connect 1 0 2 0;
#X connect 2 0 4 1;
#X connect 3 0 5 0;
#X connect 4 0 3 0;
#X connect 5 0 7 0;
#X connect 7 0 6 0;
#X connect 8 0 4 0;
#X restore 64 285 pd verificador_de_repetição;
#N canvas 445 51 583 381 iterador 0;
#X obj 89 17 inlet lista_de_dados;
#X obj 310 17 inlet tempo;
#X obj 116 300 outlet saída_dado_a_dado;
#X obj 89 118 list split 1, f 41;
#X obj 23 227 del, f 12;
#X msg 23 201 bang;
#X obj 332 300 outlet bang_de_fim;
#X obj 359 261 s \$0-fim_iterador;
#X msg 359 229 1;
#X obj 89 68 t a b;
#X msg 392 228 0;
#X obj 189 272 list;
#X obj 89 38 t a a, f 16;
#N canvas 769 39 366 347 verificador_para_bang_de_fim 0;
#X obj 37 17 inlet;
#X obj 239 79 r \$0-fim_iterador;
#N canvas 457 199 281 300 se_dado_!=_dado-1 0;
#X obj 73 130 list-abs/list-compare;
#X msg 73 174 0;
#X msg 106 174 1;
#X obj 28 92 t a a, f 8;
#X obj 28 27 inlet;
#X obj 73 236 outlet;
#X text 79 22 Verifica se a lista recebida é igual à lista recebida
imediatamente antes, f 28;
#X obj 73 151 sel 1 0;
#X connect 0 0 7 0;
#X connect 1 0 5 0;
#X connect 2 0 5 0;
#X connect 3 0 0 1;
#X connect 3 1 0 0;
#X connect 4 0 3 0;
#X connect 7 0 1 0;
#X connect 7 1 2 0;
#X restore 37 149 pd se_dado_!=_dado-1;
#X obj 37 175 == 1;
#X obj 239 100 == 0;
#X obj 112 240 == 2;
#X obj 112 216 +;
#X obj 112 261 sel 1;
#X obj 37 88 t a a;
#X obj 52 116 s lista_atual_no_iterador;
#X obj 112 299 s \$0-verificador_de_repetição;
#X connect 0 0 8 0;
#X connect 1 0 4 0;
#X connect 2 0 3 0;
#X connect 3 0 6 0;
#X connect 4 0 6 1;
#X connect 5 0 7 0;
#X connect 6 0 5 0;
#X connect 7 0 10 0;
#X connect 8 0 2 0;
#X connect 8 1 9 0;
#X restore 182 62 pd verificador_para_bang_de_fim;
#X obj 221 140 r \$0-verificador_de_repetição;
#X obj 332 209 t b b;
#X msg 58 201 stop;
#X obj 221 183 t b b b;
#X obj 89 139 t b s;
#X connect 0 0 12 0;
#X connect 1 0 4 1;
#X connect 3 0 18 0;
#X connect 3 1 11 1;
#X connect 3 2 15 0;
#X connect 4 0 11 0;
#X connect 5 0 4 0;
#X connect 8 0 7 0;
#X connect 9 0 3 0;
#X connect 9 1 10 0;
#X connect 10 0 7 0;
#X connect 11 0 3 0;
#X connect 12 0 9 0;
#X connect 12 1 13 0;
#X connect 14 0 17 0;
#X connect 15 0 6 0;
#X connect 15 1 8 0;
#X connect 16 0 4 0;
#X connect 17 0 11 0;
#X connect 17 1 11 1;
#X connect 17 2 16 0;
#X connect 18 0 5 0;
#X connect 18 1 2 0;
#X restore 193 378 pd iterador;
#X f 38;
#X obj 37 408 t b a;
#X connect 0 0 4 0;
#X connect 1 0 10 0;
#X connect 3 0 12 0;
#X connect 4 0 3 0;
#X connect 4 1 7 0;
#X connect 6 0 8 1;
#X connect 7 0 3 1;
#X connect 7 1 8 0;
#X connect 8 0 14 0;
#X connect 8 1 9 0;
#X connect 9 0 14 0;
#X connect 9 1 11 0;
#X connect 10 0 7 1;
#X connect 10 1 9 1;
#X connect 10 2 11 1;
#X connect 10 3 11 2;
#X connect 11 1 14 1;
#X connect 12 0 15 0;
#X connect 12 1 13 0;
#X connect 14 0 2 0;
#X connect 14 1 5 0;
#X connect 15 0 5 0;
#X connect 15 1 2 0;
#X restore 351 522 pd fatiar_lista_no_tempo;
#X obj 58 9 inlet mensagem_de_entrada;
#X obj 158 254 text search, f 13;
#X obj 158 277 text get, f 14;
#X obj 278 9 inlet dataset;
#X obj 158 194 t s s, f 45;
#X obj 192 441 t a a;
#N canvas 128 99 366 300 verificador_de_repetição 0;
#X obj 37 37 inlet;
#X obj 239 33 r \$0-fim_iterador;
#X obj 239 70 == 0;
#X obj 112 180 == 2;
#X obj 112 156 +;
#X obj 112 201 sel 1;
#X obj 112 259 s \$0-verificador_de_repetição;
#X msg 112 222 1;
#X obj 37 58 t b;
#X msg 37 79 1;
#X connect 0 0 8 0;
#X connect 1 0 2 0;
#X connect 2 0 4 1;
#X connect 3 0 5 0;
#X connect 4 0 3 0;
#X connect 5 0 7 0;
#X connect 7 0 6 0;
#X connect 8 0 9 0;
#X connect 9 0 4 0;
#X restore 219 462 pd verificador_de_repetição;
#X connect 3 1 4 0;
#X connect 4 1 12 0;
#X connect 5 0 1 0;
#X connect 5 1 2 0;
#X connect 6 0 20 0;
#X connect 6 1 9 0;
#X connect 7 0 12 1;
#X connect 8 0 6 0;
#X connect 8 1 7 0;
#X connect 9 0 15 2;
#X connect 10 0 11 0;
#X connect 11 0 5 0;
#X connect 12 0 21 0;
#X connect 12 1 15 0;
#X connect 15 0 2 0;
#X connect 15 1 1 0;
#X connect 16 0 8 0;
#X connect 17 0 10 0;
#X connect 17 0 18 0;
#X connect 18 0 3 0;
#X connect 19 0 17 1;
#X connect 19 0 18 3;
#X connect 20 0 17 0;
#X connect 20 1 15 1;
#X connect 21 0 5 0;
#X connect 21 1 22 0;
#X restore 315 391 pd stops;
#N canvas 112 123 555 508 trajeto 0;
#X obj 285 400 outlet bang_de_fim;
#X obj 88 400 outlet saída_de_dados;
#N canvas 313 189 495 459 saída_trajeto 0;
#X text 300 17 Separa e retorna dados referentes ao primeiro e último
indicador de ponto de parada de ônibus, f 25;
#X obj 260 135 list length;
#X obj 203 174 list split;
#X obj 203 113 t l l;
#X obj 260 155 - 1;
#X msg 82 313 set symbol \$1-\$2;
#X msg 55 359 symbol 640000518id-920016702id;
#X obj 55 292 t b l;
#X obj 55 271 pack s s;
#X obj 55 59 list split 26;
#X obj 55 86 list split 1, f 50;
#X obj 55 238 list trim;
#X obj 231 238 list trim;
#X obj 55 207 list prepend symbol;
#X obj 231 207 list prepend symbol;
#X obj 55 18 inlet pontos_de_parada;
#X obj 55 408 outlet identificador_de_trajeto;
#X connect 1 0 4 0;
#X connect 2 1 14 0;
#X connect 3 0 2 0;
#X connect 3 1 1 0;
#X connect 4 0 2 1;
#X connect 5 0 6 0;
#X connect 6 0 16 0;
#X connect 7 0 6 0;
#X connect 7 1 5 0;
#X connect 8 0 7 0;
#X connect 9 1 10 0;
#X connect 10 0 13 0;
#X connect 10 1 3 0;
#X connect 11 0 8 0;
#X connect 12 0 8 1;
#X connect 13 0 11 0;
#X connect 14 0 12 0;
#X connect 15 0 9 0;
#X restore 138 313 pd saída_trajeto;
#X obj 138 82 list prepend symbol;
#X obj 138 103 list trim;
#X text 359 132 retorna um identificador de trajeto referente à linha
requerida, f 25;
#X obj 138 334 t b a;
#X obj 41 208 sel -1;
#X msg 41 229 linha não encontrada;
#X obj 138 27 inlet mensagem_de_entrada;
#X obj 203 168 text search;
#X obj 203 256 text get, f 13;
#X obj 314 27 inlet dataset;
#X connect 2 0 6 0;
#X connect 3 0 4 0;
#X connect 4 0 10 0;
#X connect 6 0 0 0;
#X connect 6 1 1 0;
#X connect 7 0 8 0;
#X connect 8 0 6 0;
#X connect 9 0 3 0;
#X connect 10 0 7 0;
#X connect 10 0 11 0;
#X connect 11 0 2 0;
#X connect 12 0 10 1;
#X connect 12 0 11 3;
#X restore 372 391 pd trajeto;
#X obj 847 415 print Erro;
#X msg 847 394 Verifique a formatação da mensagem no Help;
#X text 577 84 seleciona o dia da semana que fornecerá os dados,
f 25;
#X obj 172 519 outlet saída_de_dados;
#X obj 583 519 outlet bang_de_fim;
#X floatatom 807 75 5 0 0 0 - - -;
#X obj 877 556 declare -path ../biblioteca;
#N canvas 0 22 612 613 distância 0;
#X obj 398 538 outlet bang_de_fim;
#X obj 231 538 outlet saída_de_dados;
#X obj 170 24 inlet identificador_de_trajeto;
#X obj 204 399 t b a;
#X obj 19 257 sel -1;
#X msg 19 278 linha não encontrada;
#X text 24 131 identificador de trajeto;
#X obj 400 24 inlet dataset;
#X obj 170 204 text search;
#X obj 170 232 text get, f 13;
#X obj 170 313 list split 1;
#X obj 204 333 list split 1;
#X obj 170 105 list prepend symbol;
#X obj 170 126 list trim;
#X connect 2 0 12 0;
#X connect 3 0 0 0;
#X connect 3 1 1 0;
#X connect 4 0 5 0;
#X connect 5 0 3 0;
#X connect 7 0 8 1;
#X connect 7 0 9 3;
#X connect 8 0 4 0;
#X connect 8 0 9 0;
#X connect 9 0 10 0;
#X connect 10 1 11 0;
#X connect 11 0 3 0;
#X connect 12 0 13 0;
#X connect 13 0 8 0;
#X restore 681 392 pd distância;
#X obj 77 166 route linhas buzu start_time interval stops trajeto coordenadas
zona distancia avgspeed, f 97;
#X connect 0 0 21 0;
#X connect 1 0 2 0;
#X connect 2 0 3 0;
#X connect 3 0 6 1;
#X connect 3 0 12 1;
#X connect 3 0 8 1;
#X connect 3 0 7 1;
#X connect 3 0 4 1;
#X connect 3 0 11 1;
#X connect 3 1 9 1;
#X connect 3 1 5 1;
#X connect 3 2 10 1;
#X connect 3 2 20 1;
#X connect 4 0 16 0;
#X connect 4 1 17 0;
#X connect 5 0 16 0;
#X connect 5 1 17 0;
#X connect 6 0 16 0;
#X connect 6 1 17 0;
#X connect 7 0 16 0;
#X connect 7 1 17 0;
#X connect 8 0 16 0;
#X connect 8 1 17 0;
#X connect 9 0 16 0;
#X connect 9 1 17 0;
#X connect 10 0 16 0;
#X connect 10 1 17 0;
#X connect 11 0 16 0;
#X connect 11 1 17 0;
#X connect 12 0 16 0;
#X connect 12 1 17 0;
#X connect 14 0 13 0;
#X connect 18 0 3 0;
#X connect 20 0 16 0;
#X connect 20 1 17 0;
#X connect 21 0 6 0;
#X connect 21 1 4 0;
#X connect 21 2 7 0;
#X connect 21 3 8 0;
#X connect 21 4 11 0;
#X connect 21 5 12 0;
#X connect 21 6 9 0;
#X connect 21 7 5 0;
#X connect 21 8 20 0;
#X connect 21 9 10 0;
#X connect 21 10 14 0;
